<svg width="64" height="64" viewBox="0 0 64 64" fill="none" xmlns="http://www.w3.org/2000/svg">
<path d="M54.8644 59.3591H0V4.30769H54.8644V15.1091H51.5711V7.61199H3.29325V56.0547H51.5711V48.8637H54.8644V59.3591Z" fill="#511E2E"/>
<path d="M48.4541 42.8697V39.7125H57.505C58.3468 39.7125 59.0434 39.4117 59.5949 38.8103C60.1463 38.2089 60.422 37.5273 60.422 36.7656C60.422 35.9641 60.1513 35.2774 59.6101 34.7057C59.069 34.1342 58.3874 33.8485 57.5654 33.8487H53.8067C52.6234 33.8487 51.5659 33.6031 50.6342 33.1119C49.7229 32.6405 48.9584 31.928 48.4242 31.052C47.8826 30.1705 47.6119 29.1282 47.6123 27.9252C47.6123 26.7424 47.8728 25.69 48.3937 24.7679C48.8956 23.8657 49.6337 23.1171 50.5287 22.6025C51.4308 22.0815 52.4534 21.8211 53.5962 21.8211H62.6472V24.9783H53.9269C53.1248 24.9783 52.4682 25.2589 51.9572 25.8201C51.4461 26.3813 51.1905 27.0228 51.1905 27.7446C51.18 28.4597 51.4497 29.1505 51.942 29.6691C52.4429 30.2102 53.0945 30.4808 53.897 30.481H57.7454C59.0282 30.481 60.1359 30.7315 61.0685 31.2325C62.0006 31.7339 62.7222 32.4256 63.2334 33.3077C63.7446 34.1897 64.0001 35.2021 64.0001 36.3447C64.0001 37.6879 63.7346 38.8455 63.2035 39.8174C62.6722 40.7903 61.9504 41.542 61.0381 42.0725C60.1261 42.6044 59.0989 42.8701 57.9564 42.8697H48.4541Z" fill="#511E2E"/>
</svg>
